<?xml version="1.0" encoding="UTF-8"?>
<svg width="10px" height="12px" viewBox="0 0 10 12" version="1.1" xmlns="http://www.w3.org/2000/svg" xmlns:xlink="http://www.w3.org/1999/xlink">
    <!-- Generator: Sketch 45 (43475) - http://www.bohemiancoding.com/sketch -->
    <title>Fill 1</title>
    <desc>Created with Sketch.</desc>
    <defs></defs>
    <g id="starteenwinkel-mobile" stroke="none" stroke-width="1" fill="none" fill-rule="evenodd">
        <g id="01_homepage_A_starteenwinkel_mobile" transform="translate(-155.000000, -473.000000)" fill="#FFFFFF">
            <g id="header" transform="translate(-15.000000, 43.000000)">
                <g id="start-nu-een-succesvolle-webshop" transform="translate(47.000000, 85.000000)">
                    <g id="Page-1" transform="translate(123.000000, 345.000000)">
                        <path d="M8.05696561,6.252 L6.25071561,7.698 L6.25071561,1.5 C6.25071561,0.672 5.68946561,0 5.00071561,0 C4.31071561,0 3.75071561,0.672 3.75071561,1.5 L3.75071561,7.698 L1.94321561,6.252 C1.36821561,5.7915 0.591965608,5.979 0.210715608,6.6675 C-0.173034392,7.3575 -0.0180343922,8.289 0.556965608,8.748 L4.30696561,11.748 C4.51696561,11.916 4.75821561,12 5.00071561,12 C5.24196561,12 5.48321561,11.916 5.69321561,11.748 L9.44321561,8.748 C10.0182156,8.289 10.1732156,7.3575 9.79071561,6.6675 C9.40696561,5.979 8.63071561,5.7915 8.05696561,6.252" id="Fill-1"></path>
                    </g>
                </g>
            </g>
        </g>
    </g>
</svg>